<?xml version="1.0" ?><svg style="enable-background:new 0 0 256 256;" version="1.1" viewBox="0 0 256 256" xml:space="preserve" xmlns="http://www.w3.org/2000/svg" xmlns:xlink="http://www.w3.org/1999/xlink"><style type="text/css">
	.st0{fill:#00A388;}
	.st1{fill:#EA685E;stroke:#00886F;stroke-width:15;stroke-miterlimit:10;}
	.st2{fill:#E8E8E8;}
	.st3{fill:#FFFFFF;stroke:#00886F;stroke-width:15;stroke-miterlimit:10;}
	.st4{fill:#00886F;}
	.st5{fill:#FFFFFF;}
	.st6{fill:#CCCCCC;}
	.st7{fill:none;stroke:#00A388;stroke-width:4;stroke-miterlimit:10;}
	.st8{fill:#EA685E;}
	.st9{fill:#FFAB80;}
	.st10{fill:#2C3E50;}
	.st11{fill:#4B687F;}
	.st12{fill:none;stroke:#3E5063;stroke-width:4;stroke-miterlimit:10;}
	.st13{fill:#FFD766;}
	.st14{fill:#FFE6D3;}
	.st15{fill:#F09A79;}
	.st16{fill:#C91E01;}
	.st17{fill:#EA3B28;}
	.st18{fill:#0F627F;}
	.st19{fill:#005670;}
	.st20{filter:url(#Adobe_OpacityMaskFilter);}
	.st21{mask:url(#SVGID_2_);}
	.st22{fill:#8C623B;}
	.st23{fill:#E6E6E6;stroke:#005670;stroke-width:16;stroke-miterlimit:10;}
	.st24{opacity:0.6;}
	.st25{fill:#E6E6E6;}
	.st26{fill:#FFEC82;}
	.st27{fill:#FFCF3A;}
	.st28{filter:url(#Adobe_OpacityMaskFilter_1_);}
	.st29{mask:url(#SVGID_1_);}
	.st30{fill:#603813;}
	.st31{fill:#F2F2F2;}
	.st32{fill:#666666;}
</style><g id="Layer_2"><circle class="st2" cx="128" cy="128" r="120"/></g><g id="Layer_1"><g><g><path class="st18" d="M134.87619,202.147675c-0.705917,3.137756-3.514267,5.475372-6.871506,5.475372     c-3.341911,0-6.165771-2.337616-6.871887-5.475372c0.39222,0.047012,0.800148,0.062714,1.22377,0.062714h11.295853     C134.07605,202.210388,134.483963,202.194672,134.87619,202.147675z"/></g><g><path class="st19" d="M146.595657,164.447479l-1.254974,23.690125c0,7.32663-3.733948,13.366776-10.464493,14.010071     c-0.392227,0.047012-0.80014,0.062714-1.22377,0.062714h-11.295853c-0.423622,0-0.831551-0.015701-1.22377-0.062714     c-6.730545-0.64328-10.464294-6.683441-10.464294-14.010071l-1.255188-23.690125H146.595657z"/></g><g><path class="st18" d="M110.180885,175.196716c-1.692047,0-3.143799-1.27681-3.326889-2.995026     c-0.194542-1.839172,1.13784-3.487106,2.977043-3.683289l35.642685-3.776459     c1.847366-0.170044,3.487137,1.139481,3.683319,2.977036c0.194519,1.839188-1.137863,3.487106-2.977066,3.683273     l-35.642685,3.776474C110.416306,175.190186,110.298599,175.196716,110.180885,175.196716z"/></g><g><path class="st18" d="M111.044083,186.868118c-1.692039,0-3.143799-1.27681-3.326881-2.99501     c-0.194557-1.839172,1.139481-3.487106,2.977036-3.683289l33.916313-3.591736     c1.835922-0.163483,3.487106,1.137863,3.683289,2.977036c0.194534,1.839188-1.139481,3.487106-2.977051,3.683289     l-33.916321,3.591736C111.279503,186.861588,111.161797,186.868118,111.044083,186.868118z"/></g><g><path class="st18" d="M112.929054,198.433319c-1.69207,0-3.143784-1.276825-3.326897-2.995026     c-0.194542-1.839172,1.139481-3.487091,2.977028-3.683273l30.148033-3.192841     c1.83429-0.168396,3.487091,1.137833,3.683273,2.977036c0.19455,1.839172-1.139481,3.487106-2.97702,3.683289     l-30.148033,3.192841C113.164474,198.426788,113.046768,198.433319,112.929054,198.433319z"/></g><g><path class="st26" d="M173.000015,93.388924c0,9.946777-3.231995,19.140381-8.707336,26.592529     c-6.118469,8.330574-9.758362,18.214607-9.758362,28.553474v9.44458c0,4.126221-3.341736,7.468018-7.467896,7.468018h-38.123848     c-4.125977,0-7.467896-3.341797-7.467896-7.468018v-10.495605c0-9.821289-3.514282-19.203125-9.428955-27.047615     c-6.683289-8.864014-10.166321-20.285645-8.7229-32.522705c2.431885-20.520996,19.014832-36.978516,39.551575-39.253418     C150.031631,45.663582,173.000015,66.843513,173.000015,93.388924z"/></g><g><path class="st27" d="M118.504486,161.727097l0.641296-12.10553c0-3.743881,1.90802-6.830353,5.347298-7.159073     c0.200424-0.024033,0.408875-0.032059,0.625343-0.032059h5.772125c0.216476,0,0.424911,0.008026,0.625336,0.032059     c3.439285,0.328705,5.347214,3.415192,5.347214,7.159073l0.641388,12.10553H118.504486z"/></g><g><g><path class="st27" d="M122.888184,146.023438c-0.913086,0-1.737793-0.628906-1.948242-1.556641l-9.786133-43.09082      c-0.244629-1.077148,0.430176-2.148438,1.507324-2.393066c1.074707-0.246582,2.148926,0.429688,2.393066,1.507324      l9.786133,43.089844c0.244629,1.077148-0.430176,2.149414-1.507324,2.393555      C123.184082,146.007813,123.035156,146.023438,122.888184,146.023438z"/></g><g><path class="st27" d="M133.105957,146.023438c-0.146973,0-0.295898-0.015625-0.444824-0.049805      c-1.077148-0.244141-1.751953-1.316406-1.507324-2.393555l9.786133-43.089844      c0.244629-1.077637,1.318848-1.753906,2.393066-1.507324c1.077148,0.244629,1.751953,1.315918,1.507324,2.393066      l-9.786133,43.09082C134.84375,145.394531,134.019043,146.023438,133.105957,146.023438z"/></g></g><g><path class="st27" d="M120.549805,106.203613l-8.39209-4.508789c-0.973145-0.522461-1.338379-1.735352-0.81543-2.708008     c0.521973-0.973633,1.734863-1.339355,2.708008-0.81543l6.499512,3.491211l7.442871-4l7.44873,4.000488l6.502441-3.492188     c0.973145-0.523438,2.18457-0.157715,2.708496,0.815918c0.522461,0.973145,0.157227,2.185547-0.815918,2.708496     l-8.39502,4.507813l-7.447754-3.999512L120.549805,106.203613z"/></g></g></g></svg>